<?xml version="1.0" standalone="no"?>
<!DOCTYPE svg PUBLIC "-//W3C//DTD SVG 20010904//EN"
 "http://www.w3.org/TR/2001/REC-SVG-20010904/DTD/svg10.dtd">
<svg version="1.0" xmlns="http://www.w3.org/2000/svg"
 width="180.000000pt" height="180.000000pt" viewBox="0 0 180.000000 180.000000"
 preserveAspectRatio="xMidYMid meet">

<g transform="translate(0.000000,180.000000) scale(0.100000,-0.100000)"
fill="#FFA500" stroke="none">
<path d="M543 1293 c-14 -16 -49 -76 -79 -135 l-54 -108 -60 0 c-55 0 -62 -2
-72 -25 -14 -30 1 -51 43 -60 16 -4 29 -9 29 -11 0 -3 -11 -20 -24 -37 -30
-41 -46 -108 -46 -192 0 -80 16 -148 39 -169 35 -32 163 -41 581 -41 418 0
546 9 581 41 57 52 49 314 -11 369 -27 24 -25 32 9 40 42 9 57 30 43 60 -10
23 -17 25 -72 25 l-60 0 -52 106 c-29 59 -65 120 -80 135 l-26 29 -331 0 -332
0 -26 -27z m672 -33 c22 -18 115 -206 115 -231 0 -28 -80 -34 -430 -34 -349 0
-430 6 -430 34 0 20 72 171 101 212 12 18 31 29 52 32 17 3 154 4 303 3 225
-1 274 -4 289 -16z m-687 -446 c51 -58 5 -131 -80 -125 -46 3 -73 73 -47 122
23 45 88 46 127 3z m865 4 c36 -42 10 -126 -40 -129 -58 -4 -88 16 -98 62 -17
77 86 128 138 67z m-243 -28 c0 -11 -10 -36 -22 -55 l-23 -35 -206 0 -205 0
-22 39 c-42 74 -52 71 228 71 244 0 250 0 250 -20z"/>
<path d="M322 457 l3 -62 70 -3 c105 -5 115 0 115 52 l0 44 -62 7 c-35 3 -78
10 -96 15 l-33 9 3 -62z"/>
<path d="M1449 510 c-14 -4 -55 -10 -92 -14 l-67 -8 0 -37 c0 -53 13 -61 102
-61 75 0 79 1 88 26 12 30 13 91 3 97 -5 2 -20 1 -34 -3z"/>
</g>
</svg>
